<svg width="57.446" height="35.554" viewBox="0 0 57.446 35.554" xmlns="http://www.w3.org/2000/svg"><g id="svgGroup" stroke-linecap="round" fill-rule="nonzero" font-size="9pt" stroke="#ff0000" stroke-width="0.25mm" fill="#ff0000" style="stroke:#ff0000;stroke-width:0.25mm;fill:#ff0000"><path d="M 13.11 21.613 L 3.613 21.613 L 3.613 17.78 L 13.11 17.78 A 9.783 9.783 0 0 0 17.578 16.902 Q 19.287 16.023 20.081 14.46 Q 20.874 12.898 20.874 10.896 Q 20.874 9.065 20.081 7.453 Q 19.287 5.842 17.578 4.853 A 8.863 8.863 0 0 0 13.11 3.864 L 4.712 3.864 L 4.712 35.554 L 0 35.554 L 0 0.007 L 13.11 0.007 Q 17.139 0.007 19.922 1.399 Q 22.705 2.79 24.146 5.244 Q 25.586 7.697 25.586 10.847 A 11.2 11.2 0 0 1 24.146 16.682 Q 22.705 19.099 19.922 20.356 Q 17.139 21.613 13.11 21.613 Z M 29.102 0.007 L 34.595 0.007 L 43.14 13.63 L 51.685 0.007 L 57.178 0.007 L 45.947 17.61 L 57.446 35.554 L 51.904 35.554 L 43.14 21.662 L 34.375 35.554 L 28.833 35.554 L 40.332 17.61 L 29.102 0.007 Z"/></g></svg>