<svg width="34.468" height="21.328" viewBox="0 0 34.468 21.328" xmlns="http://www.w3.org/2000/svg"><g id="svgGroup" stroke-linecap="round" fill-rule="evenodd" font-size="9pt" stroke="#000000" stroke-width="0.2mm" fill="#ff0000" style="stroke:#000000;stroke-width:0.2mm;fill:#ff0000"><path d="M 7.866 12.964 L 2.168 12.964 L 2.168 10.664 L 7.866 10.664 A 8.526 8.526 0 0 0 8.93 10.602 Q 9.476 10.533 9.931 10.388 A 3.982 3.982 0 0 0 10.547 10.137 Q 11.572 9.61 12.048 8.672 A 4.382 4.382 0 0 0 12.482 7.223 A 5.523 5.523 0 0 0 12.524 6.533 Q 12.524 5.435 12.048 4.468 A 3.564 3.564 0 0 0 10.854 3.102 A 4.44 4.44 0 0 0 10.547 2.908 A 4.013 4.013 0 0 0 9.529 2.502 Q 8.797 2.315 7.866 2.315 L 2.827 2.315 L 2.827 21.328 L 0 21.328 L 0 0 L 7.866 0 A 11.629 11.629 0 0 1 9.703 0.137 Q 10.705 0.298 11.539 0.646 A 6.65 6.65 0 0 1 11.953 0.835 A 6.357 6.357 0 0 1 13.577 1.976 A 5.591 5.591 0 0 1 14.487 3.142 A 6.309 6.309 0 0 1 15.321 5.81 A 7.786 7.786 0 0 1 15.352 6.504 A 8.123 8.123 0 0 1 15.189 8.17 A 5.929 5.929 0 0 1 14.487 10.005 A 5.388 5.388 0 0 1 12.309 12.036 A 6.688 6.688 0 0 1 11.953 12.21 A 7.945 7.945 0 0 1 10.223 12.751 Q 9.419 12.911 8.495 12.951 A 14.563 14.563 0 0 1 7.866 12.964 Z M 17.461 0 L 20.757 0 L 25.884 8.174 L 31.011 0 L 34.307 0 L 27.568 10.562 L 34.468 21.328 L 31.143 21.328 L 25.884 12.993 L 20.625 21.328 L 17.3 21.328 L 24.199 10.562 L 17.461 0 Z"/></g></svg>